<svg xmlns="http://www.w3.org/2000/svg" width="50" height="57"><path style="stroke:none;fill-rule:nonzero;fill:#000;fill-opacity:1" d="M25.012 15.695c-7.098 0-12.825 5.715-12.825 12.793 0 7.082 5.727 12.793 12.825 12.793 7.097 0 12.824-5.71 12.824-12.793 0-7.078-5.727-12.793-12.824-12.793Zm0 21.11c-4.586 0-8.336-3.73-8.336-8.317 0-4.586 3.738-8.316 8.336-8.316 4.597 0 8.336 3.73 8.336 8.316s-3.75 8.317-8.336 8.317Zm16.34-21.63a2.98 2.98 0 0 1-2.993 2.981 2.98 2.98 0 0 1-2.992-2.98 2.988 2.988 0 0 1 2.992-2.985 2.988 2.988 0 0 1 2.993 2.985Zm8.492 3.028c-.192-3.996-1.106-7.539-4.04-10.453-2.925-2.918-6.472-3.832-10.48-4.031-4.129-.235-16.508-.235-20.636 0-3.997.187-7.543 1.101-10.481 4.02C1.273 10.651.367 14.194.168 18.19c-.234 4.118-.234 16.465 0 20.586.187 3.996 1.105 7.535 4.039 10.453 2.938 2.915 6.473 3.829 10.48 4.028 4.13.234 16.508.234 20.637 0 4.008-.188 7.555-1.102 10.48-4.028 2.923-2.917 3.84-6.457 4.04-10.453.234-4.12.234-16.457 0-20.574Zm-5.336 24.992c-.871 2.184-2.555 3.864-4.754 4.742-3.293 1.305-11.106 1.004-14.742 1.004-3.64 0-11.461.29-14.742-1.004a8.44 8.44 0 0 1-4.758-4.742C4.207 39.91 4.508 32.117 4.508 28.488c0-3.629-.29-11.433 1.004-14.707A8.44 8.44 0 0 1 10.27 9.04c3.289-1.3 11.101-1 14.742-1 3.636 0 11.46-.289 14.742 1a8.433 8.433 0 0 1 4.754 4.742c1.308 3.285 1.004 11.078 1.004 14.707 0 3.63.304 11.434-1.004 14.707Zm0 0"/></svg>